PathFileType	4	(X/Y/Z)	C:\Users\WrightLab\Desktop\Jo\P5V14.trc
DataRate	CameraRate	NumFrames	NumMarkers	Units	OrigDataRate	OrigDataStartFrame	OrigNumFrames
100.00	100.00	       72	19	mm	100.00	504	       575
Frame#	Time	Headset_Front			Headset_Back			Headset_Left			Headset_Right			Left_Shoulder			Right_Shoulder			Sternum			C7			Left Elbow			Right Elbow			Left Wrist			Right Wrist			Left ASIS			Right ASIS			S2			Left Knee			Right Knee			Left Ankle			Right Ankle			
		X1	Y1	Z1	X2	Y2	Z2	X3	Y3	Z3	X4	Y4	Z4	X5	Y5	Z5	X6	Y6	Z6	X7	Y7	Z7	X8	Y8	Z8	X9	Y9	Z9	X10	Y10	Z10	X11	Y11	Z11	X12	Y12	Z12	X13	Y13	Z13	X14	Y14	Z14	X15	Y15	Z15	X16	Y16	Z16	X17	Y17	Z17	X18	Y18	Z18	X19	Y19	Z19	

504	5.030																																														-560.94873	540.91998	1832.26233										
505	5.040																																														-560.55096	541.13300	1835.59082										
506	5.050																																														-562.48169	539.96094	1842.00098										
507	5.060																																														-562.37860	540.15527	1845.89697										
508	5.070																																														-562.16205	540.15314	1849.34863										
509	5.080																																														-562.11975	540.14917	1852.74756										
510	5.090																																														-561.19489	537.20831	1856.79260										
511	5.100																																														-560.81085	536.57544	1862.09583										
512	5.110																																														-559.59631	534.33081	1864.87781										
513	5.120																																														-557.20020	533.78461	1870.02234										
514	5.130																																														-554.31366	533.54834	1874.74304										
515	5.140																																														-550.93585	533.82666	1881.16162										
516	5.150																																														-546.52271	533.92603	1886.13159										
517	5.160																																														-541.47229	533.42761	1893.19824										
518	5.170																																														-535.79608	533.85352	1897.17871										
519	5.180																																														-530.17078	534.05048	1901.79626										
520	5.190																																														-523.91803	534.66016	1907.67358										
521	5.200																																														-517.73553	536.02362	1911.94446										
522	5.210																																														-511.44675	535.41400	1918.54773										
523	5.220																																														-504.78146	537.89264	1917.44263										
524	5.230																																														-498.76819	539.49023	1915.29333										
525	5.240																																														-492.56799	540.60883	1914.38049										
526	5.250																																														-487.08875	542.14618	1913.25415										
527	5.260																																														-481.68188	543.76184	1910.88037										
528	5.270																																														-476.86285	544.17902	1910.57385										
529	5.280																																														-472.77432	546.35846	1908.51563										
530	5.290																																														-469.72778	548.16400	1906.45715										
531	5.300																																														-466.48779	549.23187	1905.88525										
532	5.310																																														-464.29517	550.05823	1904.54431										
533	5.320																																														-463.19595	550.59186	1905.33655										
534	5.330																																														-462.38443	551.60571	1904.99915										
535	5.340																																														-461.95093	553.78772	1903.80542										
536	5.350																																														-460.71060	557.15735	1902.22705										
537	5.360																																														-460.21555	558.71252	1900.42004										
538	5.370																																														-460.13080	559.62347	1902.71021										
539	5.380																																														-460.36539	562.74689	1899.01648										
540	5.390																																														-460.39322	563.09119	1899.05481										
541	5.400																																														-460.56348	563.74493	1897.06348										
542	5.410																																														-460.83963	563.50354	1897.41138										
543	5.420																																														-461.12360	562.42883	1899.97510										
544	5.430																																														-461.47910	561.20563	1901.75464										
545	5.440																																														-462.09235	560.99054	1902.53052										
546	5.450																																														-462.88156	560.82129	1903.52979										
547	5.460																																														-464.18243	560.62689	1906.05420										
548	5.470																																														-465.53488	560.14862	1907.76526										
549	5.480																																														-466.75830	559.47607	1909.31128										
550	5.490																																														-467.78305	558.97723	1910.60681										
551	5.500																																														-469.34534	557.55243	1912.76855										
552	5.510																																														-470.74332	557.17529	1914.59753										
553	5.520																																														-471.84100	556.63141	1915.62646										
554	5.530																																														-473.15097	555.52515	1918.88965										
555	5.540																																														-474.50818	553.93530	1921.31946										
556	5.550																																														-475.96887	552.19513	1925.15112										
557	5.560																																														-476.90143	550.61884	1928.40820										
558	5.570																																														-477.62759	549.54779	1928.42651										
559	5.580																																														-479.17285	548.55176	1931.65540										
560	5.590																																														-480.32001	544.82727	1937.13403										
561	5.600																																														-481.12656	543.82080	1936.31152										
562	5.610																																														-481.64822	542.47717	1938.80554										
563	5.620																																														-480.74054	539.67615	1941.68848										
564	5.630																																														-479.43237	538.48120	1944.49353										
565	5.640																																														-477.89673	537.63721	1947.01343										
566	5.650																																														-476.46771	537.11615	1949.67334										
567	5.660																																														-475.22134	538.95300	1949.15881										
568	5.670																																														-473.73669	542.68347	1948.30823										
569	5.680																																														-471.50140	542.63019	1950.06396										
570	5.690																																														-470.06152	544.88708	1950.49829										
571	5.700																																														-468.81964	545.87225	1951.23706										
572	5.710																																														-466.58383	546.40057	1950.53931										
573	5.720																																														-465.08667	546.70447	1949.64233										
574	5.730																																														-464.00604	546.54419	1951.57800										
575	5.740																																														-462.88962	546.94403	1950.50146										
